<?xml version="1.0" encoding="utf-8"?>
<!-- Generator: Adobe Illustrator 23.0.1, SVG Export Plug-In . SVG Version: 6.00 Build 0)  -->
<svg version="1.1" id="Layer_1" xmlns="http://www.w3.org/2000/svg" xmlns:xlink="http://www.w3.org/1999/xlink" x="0px"
	y="0px" viewBox="0 0 311.5 37.8" style="enable-background:new 0 0 311.5 37.8;" xml:space="preserve">
	<g>
		<path d="M0,29.6c3.29-6.22,7.93-11.74,13.36-16.4C18.8,8.54,25.23,4.9,32.19,2.6c3.49-1.11,7.11-1.85,10.77-2.28
		C46.63-0.1,50.32-0.06,54,0.17c3.66,0.35,7.32,0.86,10.87,1.79c0.89,0.23,1.79,0.4,2.67,0.67l2.63,0.8
		c1.8,0.52,3.37,1.09,5.05,1.64c13.22,4.32,26.46,8.98,39.55,10.86c6.53,0.9,12.96,0.89,19.32-0.33c6.36-1.17,12.7-3.37,19-5.94
		c3.16-1.25,6.31-2.65,9.46-4.04c3.35-1.45,6.98-2.93,10.68-3.8c3.71-0.9,7.49-1.53,11.3-1.69c3.8-0.17,7.59-0.03,11.31,0.44
		c7.43,1.01,14.56,3.08,21.28,5.79c6.74,2.66,13.12,5.9,19.34,9.23c6.22,3.33,12.27,6.81,18.38,9.98c3.05,1.59,6.13,3.09,9.24,4.41
		c3.04,1.29,6.19,2.25,9.45,2.83c6.5,1.18,13.34,0.65,19.84-1.36c3.26-0.98,6.44-2.33,9.48-3.97c3.05-1.62,5.98-3.53,8.68-5.77
		c-4.67,5.25-10.61,9.43-17.2,12.34c-6.59,2.92-14.03,4.2-21.42,3.63c-3.69-0.31-7.35-1.12-10.86-2.27
		c-3.44-1.13-6.76-2.49-10.02-3.89c-6.53-2.83-12.82-5.95-19.1-8.9c-3.14-1.48-6.27-2.91-9.43-4.25c-3.15-1.35-6.3-2.64-9.48-3.74
		c-6.36-2.25-12.81-3.93-19.27-4.62c-3.23-0.3-6.45-0.39-9.64-0.18c-3.19,0.18-6.32,0.78-9.4,1.57l-2.29,0.64l-2.25,0.79
		c-0.76,0.24-1.48,0.58-2.22,0.89c-0.76,0.33-1.42,0.58-2.27,0.97c-3.24,1.45-6.47,2.92-9.81,4.26c-6.66,2.66-13.6,5.1-21.03,6.38
		c-7.41,1.29-15.16,1.22-22.44-0.02c-7.3-1.21-14.23-3.24-20.98-5.49c-6.71-2.31-13.33-4.77-19.84-7.36
		c-1.62-0.62-3.31-1.32-4.84-1.87l-2.35-0.87c-0.78-0.3-1.59-0.5-2.38-0.76c-3.17-1.04-6.43-1.68-9.7-2.26
		c-3.28-0.44-6.59-0.69-9.91-0.6c-3.31,0.11-6.62,0.52-9.88,1.23c-6.53,1.44-12.77,4.28-18.46,8.09c-2.84,1.91-5.55,4.06-8.05,6.45
		C4.45,24.21,2.08,26.78,0,29.6z" />
	</g>
</svg>